<svg width="8" height="10" viewBox="0 0 8 10" fill="none" xmlns="http://www.w3.org/2000/svg">
<path d="M6 3.66667H1.83333C1.74133 3.66667 1.66667 3.74117 1.66667 3.83333C1.66667 3.9255 1.74133 4 1.83333 4H6C6.092 4 6.16667 3.9255 6.16667 3.83333C6.16667 3.74117 6.092 3.66667 6 3.66667Z" fill="#9B9B9B"/>
<path d="M1.83333 2.66667H3.5C3.592 2.66667 3.66667 2.59217 3.66667 2.5C3.66667 2.40783 3.592 2.33333 3.5 2.33333H1.83333C1.74133 2.33333 1.66667 2.40783 1.66667 2.5C1.66667 2.59217 1.74133 2.66667 1.83333 2.66667Z" fill="#9B9B9B"/>
<path d="M6 5H1.83333C1.74133 5 1.66667 5.0745 1.66667 5.16667C1.66667 5.25883 1.74133 5.33333 1.83333 5.33333H6C6.092 5.33333 6.16667 5.25883 6.16667 5.16667C6.16667 5.0745 6.092 5 6 5Z" fill="#9B9B9B"/>
<path d="M6 6.33333H1.83333C1.74133 6.33333 1.66667 6.40783 1.66667 6.5C1.66667 6.59217 1.74133 6.66667 1.83333 6.66667H6C6.092 6.66667 6.16667 6.59217 6.16667 6.5C6.16667 6.40783 6.092 6.33333 6 6.33333Z" fill="#9B9B9B"/>
<path d="M6 7.66667H1.83333C1.74133 7.66667 1.66667 7.74117 1.66667 7.83333C1.66667 7.9255 1.74133 8 1.83333 8H6C6.092 8 6.16667 7.9255 6.16667 7.83333C6.16667 7.74117 6.092 7.66667 6 7.66667Z" fill="#9B9B9B"/>
<path d="M5.40233 0H0V10H7.83333V2.431L5.40233 0ZM5.5 0.569L7.26433 2.33333H5.5V0.569ZM0.333333 9.66667V0.333333H5.16667V2.66667H7.5V9.66667H0.333333Z" fill="#9B9B9B"/>
</svg>
