<svg width="18" height="22" viewBox="0 0 18 22" fill="none" xmlns="http://www.w3.org/2000/svg">
<path d="M9.0064 10.7657C11.3889 10.7657 13.3205 8.41969 13.3205 5.52573C13.3205 2.63171 12.6863 0.285706 9.0064 0.285706C5.3265 0.285706 4.69222 2.63171 4.69222 5.52573C4.69222 8.41969 6.62379 10.7657 9.0064 10.7657Z" fill="#B0B0B0"/>
<path d="M0.857966 18.7665C0.856495 18.7168 0.85723 18.59 0.857966 18.7665V18.7665Z" fill="#B0B0B0"/>
<path d="M17.1545 18.9043C17.1553 18.5692 17.1568 18.856 17.1545 18.9043V18.9043Z" fill="#B0B0B0"/>
<path d="M17.1453 18.5549C17.0654 13.5136 16.407 12.0771 11.3686 11.1677C11.3686 11.1677 10.6594 12.0715 9.00634 12.0715C7.35328 12.0715 6.64393 11.1677 6.64393 11.1677C1.66056 12.0671 0.962114 13.4823 0.870277 18.3911C0.862747 18.792 0.859313 18.813 0.857966 18.7665C0.858272 18.8537 0.858583 19.0149 0.858583 19.2962C0.858583 19.2962 2.05809 21.7143 9.00634 21.7143C15.9545 21.7143 17.1541 19.2962 17.1541 19.2962C17.1541 19.1155 17.1543 18.9898 17.1545 18.9043C17.1531 18.9331 17.1504 18.8774 17.1453 18.5549Z" fill="#B0B0B0"/>
</svg>
